<?xml version="1.0" standalone="no"?>
<!DOCTYPE svg PUBLIC "-//W3C//DTD SVG 20010904//EN"
 "http://www.w3.org/TR/2001/REC-SVG-20010904/DTD/svg10.dtd">
<svg version="1.0" xmlns="http://www.w3.org/2000/svg"
 width="704.000000pt" height="715.000000pt" viewBox="0 0 704.000000 715.000000"
 preserveAspectRatio="xMidYMid meet">

<g transform="translate(0.000000,715.000000) scale(0.100000,-0.100000)"
fill="#000000" stroke="none">
<path d="M3375 7099 c-217 -9 -452 -39 -551 -70 -81 -25 -118 -122 -72 -189
13 -19 40 -43 61 -54 37 -17 43 -18 120 -3 158 31 313 48 482 54 104 3 183 11
202 19 67 27 94 123 53 189 -35 57 -69 64 -295 54z"/>
<path d="M4214 7016 c-91 -40 -108 -162 -31 -220 18 -13 73 -33 122 -45 146
-36 279 -79 457 -148 l168 -66 46 18 c57 22 84 62 84 127 0 72 -27 96 -177
158 -143 59 -356 129 -508 166 -115 28 -119 28 -161 10z"/>
<path d="M1298 6864 c-16 -8 -28 -21 -28 -29 0 -7 66 -71 148 -140 81 -70 159
-140 175 -156 26 -29 35 -68 21 -103 -7 -19 -244 -184 -284 -197 -21 -8 -40
-5 -81 11 -62 23 -98 25 -123 7 -25 -18 -12 -39 48 -76 30 -18 62 -41 71 -51
15 -16 27 -83 34 -182 2 -16 49 -7 66 12 10 11 22 45 27 76 5 31 13 66 19 76
6 12 74 50 155 90 113 54 152 69 180 66 60 -5 72 -31 115 -258 45 -239 56
-261 108 -207 18 20 23 40 28 126 6 99 7 102 35 117 48 25 25 78 -26 58 -13
-5 -16 2 -16 45 0 48 2 53 32 69 17 9 43 27 56 40 20 19 22 25 11 38 -8 10
-22 14 -40 10 -26 -5 -27 -4 -22 37 8 65 42 118 98 153 143 90 169 110 207
160 31 42 39 59 34 79 -5 21 -12 25 -46 25 -75 0 -146 -22 -241 -76 -107 -60
-147 -67 -233 -38 l-47 16 21 20 c44 41 -2 77 -54 42 -26 -17 -67 -15 -123 7
-24 9 -25 11 -9 28 38 42 3 73 -51 44 l-32 -17 -98 47 c-54 26 -100 47 -103
47 -3 -1 -17 -8 -32 -16z"/>
<path d="M5482 6442 c-45 -24 -72 -68 -72 -117 0 -53 21 -82 110 -150 126 -97
189 -153 340 -301 115 -113 152 -144 180 -149 97 -18 180 79 149 173 -25 75
-477 489 -594 543 -49 23 -71 23 -113 1z"/>
<path d="M785 5778 c-74 -65 -290 -388 -385 -577 -36 -72 -41 -91 -37 -129 7
-63 49 -103 114 -109 72 -7 106 21 169 138 63 118 158 269 232 372 116 158
122 168 122 204 0 77 -55 133 -131 133 -40 0 -55 -5 -84 -32z"/>
<path d="M6423 5405 c-39 -17 -63 -52 -70 -104 -5 -34 2 -52 43 -128 94 -171
179 -358 239 -526 33 -94 68 -127 135 -127 91 0 152 78 129 163 -33 125 -215
530 -299 665 -40 64 -109 87 -177 57z"/>
<path d="M173 4540 c-43 -26 -56 -55 -86 -190 -43 -191 -65 -343 -82 -560 -7
-89 9 -131 65 -168 56 -38 136 -18 176 43 10 16 20 73 29 172 16 173 36 306
70 457 14 60 25 123 25 140 -1 97 -113 158 -197 106z"/>
<path d="M6858 4073 c-15 -10 -35 -31 -44 -49 -16 -29 -16 -47 -4 -225 8 -127
10 -259 5 -385 -6 -166 -5 -196 9 -223 26 -49 80 -71 147 -58 72 15 70 -6 67
478 l-3 433 -34 23 c-41 28 -104 30 -143 6z"/>
<path d="M114 3150 c-28 -11 -61 -54 -69 -90 -13 -58 64 -398 142 -629 52
-155 62 -174 108 -195 44 -21 83 -20 122 4 76 46 82 98 29 250 -47 132 -100
333 -126 473 -22 123 -39 161 -80 182 -31 16 -92 19 -126 5z"/>
<path d="M6716 2658 c-21 -21 -41 -58 -56 -103 -44 -135 -122 -321 -193 -464
-82 -164 -87 -197 -43 -255 49 -65 148 -68 200 -5 79 93 306 638 306 733 0 79
-50 126 -136 126 -39 0 -51 -5 -78 -32z"/>
<path d="M615 1841 c-52 -23 -80 -73 -73 -129 9 -61 128 -236 304 -442 134
-158 195 -216 237 -224 54 -10 118 20 140 67 34 71 20 114 -66 206 -122 129
-231 265 -346 433 -40 59 -61 80 -92 92 -49 20 -55 20 -104 -3z"/>
<path d="M6067 1459 c-9 -5 -95 -88 -190 -183 -94 -95 -215 -208 -267 -251
-127 -103 -148 -142 -116 -220 26 -62 119 -95 179 -64 71 37 326 267 463 417
124 135 138 167 106 234 -12 24 -35 51 -51 61 -32 19 -96 22 -124 6z"/>
<path d="M1605 845 c-85 -31 -111 -126 -54 -199 59 -75 559 -344 698 -375 49
-11 108 13 135 54 25 38 24 109 -1 143 -20 28 -37 38 -273 150 -80 39 -204
106 -277 150 -73 44 -145 83 -160 86 -15 3 -46 -1 -68 -9z"/>
<path d="M4895 579 c-129 -58 -300 -121 -450 -164 -155 -44 -180 -56 -205 -98
-42 -68 -11 -157 63 -186 34 -13 47 -12 115 4 135 31 403 123 547 187 137 61
141 64 163 110 20 40 22 52 13 85 -15 55 -59 94 -113 99 -35 4 -60 -3 -133
-37z"/>
<path d="M2920 333 c-90 -29 -127 -122 -80 -198 29 -46 72 -60 266 -86 204
-26 573 -33 612 -11 58 33 80 128 43 188 -34 55 -62 61 -321 67 -163 4 -277
12 -370 26 -74 12 -135 21 -135 20 0 0 -7 -3 -15 -6z"/>
</g>
</svg>
