<svg width="22" height="14" viewBox="0 0 22 14" fill="none" xmlns="http://www.w3.org/2000/svg">
    <path fill-rule="evenodd" clip-rule="evenodd" d="M14.9639 9H18.9839C19.6469 9 20.2828 8.73661 20.7517 8.26777C21.2205 7.79893 21.4839 7.16304 21.4839 6.5C21.4839 5.83696 21.2205 5.20107 20.7517 4.73223C20.2828 4.26339 19.6469 4 18.9839 4H5.10189C4.91623 3.9999 4.73426 3.94812 4.57636 3.85045C4.41847 3.75278 4.29088 3.61308 4.20789 3.447L3.75989 2.553C3.6769 2.38692 3.54931 2.24722 3.39142 2.14955C3.23352 2.05188 3.05155 2.0001 2.86589 2H1.00089C0.835325 1.99985 0.672313 2.04082 0.526486 2.11921C0.380658 2.19761 0.256577 2.31099 0.16538 2.44917C0.0741822 2.58736 0.0187214 2.74602 0.00397473 2.91093C-0.0107719 3.07584 0.0156572 3.24183 0.08089 3.394L2.22389 8.394C2.30105 8.574 2.42937 8.72738 2.59292 8.83511C2.75647 8.94284 2.94805 9.00017 3.14389 9H7.00689C7.17022 9.0001 7.33104 9.04021 7.47529 9.11682C7.61954 9.19343 7.74283 9.3042 7.83438 9.43946C7.92594 9.57472 7.98297 9.73034 8.00049 9.89273C8.01801 10.0551 7.99549 10.2193 7.93489 10.371L7.03389 12.63C6.97354 12.7815 6.95117 12.9456 6.96874 13.1077C6.98631 13.2699 7.04329 13.4253 7.1347 13.5604C7.22612 13.6955 7.34919 13.8062 7.4932 13.8828C7.63721 13.9594 7.79777 13.9997 7.96089 14H10.0029C10.1529 14.0001 10.3009 13.9664 10.4361 13.9015C10.5713 13.8366 10.6902 13.7421 10.7839 13.625L14.1839 9.375C14.2775 9.25806 14.3962 9.16365 14.5312 9.09875C14.6662 9.03384 14.8141 9.00009 14.9639 9ZM7.98389 3H12.7339L10.7839 0.4C10.6907 0.275804 10.57 0.175 10.4311 0.105573C10.2922 0.036145 10.1391 0 9.98389 0H8.10189C7.9315 9.09694e-05 7.76396 0.0437191 7.61516 0.126744C7.46637 0.209769 7.34125 0.329438 7.2517 0.474394C7.16214 0.619351 7.1111 0.784787 7.10344 0.955006C7.09577 1.12522 7.13173 1.29458 7.20789 1.447L7.98389 3Z" fill="black"/>
    </svg>
    