<svg width="18" height="18" viewBox="0 0 18 18" fill="none" xmlns="http://www.w3.org/2000/svg">
    <path fill-rule="evenodd" clip-rule="evenodd"
        d="M0.500488 8.99988C0.500488 10.1161 0.720347 11.2214 1.14751 12.2527C1.57468 13.284 2.20078 14.221 2.99008 15.0103C3.77938 15.7996 4.71641 16.4257 5.74768 16.8529C6.77895 17.28 7.88425 17.4999 9.00049 17.4999C10.1167 17.4999 11.222 17.28 12.2533 16.8529C13.2846 16.4257 14.2216 15.7996 15.0109 15.0103C15.8002 14.221 16.4263 13.284 16.8535 12.2527C17.2806 11.2214 17.5005 10.1161 17.5005 8.99988C17.5005 6.74554 16.605 4.58353 15.0109 2.98947C13.4168 1.39541 11.2548 0.499878 9.00049 0.499878C6.74615 0.499878 4.58414 1.39541 2.99008 2.98947C1.39602 4.58353 0.500488 6.74554 0.500488 8.99988ZM16.5005 8.99988C16.5005 10.989 15.7103 12.8967 14.3038 14.3032C12.8973 15.7097 10.9896 16.4999 9.00049 16.4999C7.01136 16.4999 5.10371 15.7097 3.69719 14.3032C2.29066 12.8967 1.50049 10.989 1.50049 8.99988C1.50049 7.01075 2.29066 5.1031 3.69719 3.69658C5.10371 2.29005 7.01136 1.49988 9.00049 1.49988C10.9896 1.49988 12.8973 2.29005 14.3038 3.69658C15.7103 5.1031 16.5005 7.01075 16.5005 8.99988Z"
        fill="black" />
    <path fill-rule="evenodd" clip-rule="evenodd"
        d="M5.50049 8.99988C5.50049 13.3959 6.94249 16.9999 9.00049 16.9999C11.0585 16.9999 12.5005 13.3959 12.5005 8.99988C12.5005 4.60388 11.0585 0.999878 9.00049 0.999878C6.94249 0.999878 5.50049 4.60388 5.50049 8.99988ZM11.5005 8.99988C11.5005 12.8889 10.2555 15.9999 9.00049 15.9999C7.74549 15.9999 6.50049 12.8889 6.50049 8.99988C6.50049 5.11088 7.74549 1.99988 9.00049 1.99988C10.2555 1.99988 11.5005 5.11088 11.5005 8.99988Z"
        fill="black" />
    <path
        d="M2.73549 4.31195L3.40549 3.56995C3.51249 3.66595 3.62649 3.75995 3.74849 3.85095C5.06649 4.83895 7.14649 5.44095 9.41349 5.44095C11.3465 5.44095 13.1505 5.00395 14.4685 4.25095C14.7722 4.07913 15.0591 3.87926 15.3255 3.65395L15.9755 4.41395C15.6775 4.66895 15.3395 4.90395 14.9655 5.11795C13.4885 5.96295 11.5135 6.44095 9.41349 6.44095C6.94349 6.44095 4.65149 5.77795 3.14849 4.65095C3.00567 4.54401 2.86786 4.43156 2.73549 4.31195ZM2.73549 13.6999L3.40549 14.4399C3.51249 14.3439 3.62649 14.2499 3.74849 14.1599C5.06649 13.1719 7.14649 12.5699 9.41349 12.5699C11.3465 12.5699 13.1505 13.0059 14.4685 13.7599C14.7895 13.9439 15.0765 14.1439 15.3255 14.3559L15.9755 13.5959C15.6616 13.3302 15.3234 13.0945 14.9655 12.8919C13.4885 12.0479 11.5135 11.5699 9.41349 11.5699C6.94349 11.5699 4.65149 12.2329 3.14849 13.3589C3.00249 13.4689 2.86449 13.5829 2.73549 13.6999ZM1.00049 9.49995V8.49995H17.0005V9.49995H1.00049Z"
        fill="black" />
    <path
        d="M0.15042 0.87792C0.0540141 0.781381 -9.36475e-05 0.650499 1.21674e-07 0.514067C9.38909e-05 0.377634 0.0543815 0.246826 0.15092 0.15042C0.247459 0.0540141 0.378341 -9.36455e-05 0.514774 1.21669e-07C0.651206 9.38888e-05 0.782014 0.0543815 0.87842 0.15092L17.8494 17.1219C17.9458 17.2183 18 17.3491 18 17.4854C18 17.6218 17.9458 17.7525 17.8494 17.8489C17.753 17.9453 17.6223 17.9995 17.4859 17.9995C17.3496 17.9995 17.2188 17.9453 17.1224 17.8489L0.15042 0.87792Z"
        fill="black" />
</svg>
    