<svg width="18" height="14" viewBox="0 0 18 14" fill="none" xmlns="http://www.w3.org/2000/svg">
    <path d="M8.5 7.5H9.5V9.25V11H8.5V9.25V7.5ZM13 6.625H14V8.8125V11H13V6.625ZM4 4H5V7.5V11H4V4Z"
        fill="black" />
    <path
        d="M16.5 0H1.5C1.10218 0 0.720644 0.122916 0.43934 0.341709C0.158035 0.560501 0 0.857247 0 1.16667V12.8333C0 13.1428 0.158035 13.4395 0.43934 13.6583C0.720644 13.8771 1.10218 14 1.5 14H16.5C16.8978 14 17.2794 13.8771 17.5607 13.6583C17.842 13.4395 18 13.1428 18 12.8333V1.16667C18 0.857247 17.842 0.560501 17.5607 0.341709C17.2794 0.122916 16.8978 0 16.5 0ZM17 12.8333H1V7V1.16667H9H17V12.8333Z"
        fill="black" />
</svg>
    