<svg width="18" height="14" viewBox="0 0 18 14" fill="none" xmlns="http://www.w3.org/2000/svg">
    <path
        d="M0 14V9.808C0.588667 9.59 1.069 9.22733 1.441 8.72C1.81367 8.21333 2 7.64 2 7C2 6.36 1.81367 5.78667 1.441 5.28C1.069 4.77333 0.588667 4.41067 0 4.192V0H18V14H0ZM1 13H17V1H1V3.55C1.61667 3.91667 2.10433 4.40433 2.463 5.013C2.82167 5.62167 3.00067 6.284 3 7C3 7.71667 2.821 8.37933 2.463 8.988C2.105 9.59667 1.61733 10.084 1 10.45V13ZM5.927 10.42L14.635 8.108C14.859 8.054 15.0367 7.93167 15.168 7.741C15.2993 7.551 15.3383 7.35 15.285 7.138C15.231 6.92667 15.1043 6.77767 14.905 6.691C14.705 6.60433 14.4993 6.588 14.288 6.642L11.762 7.331L7.762 3.581L6.708 3.815L9.108 8.015L6.362 8.692L5.112 7.742L4.508 7.915L5.927 10.42Z"
        fill="black" />
</svg>
    