<svg width="18" height="14" viewBox="0 0 18 14" fill="none" xmlns="http://www.w3.org/2000/svg">
    <path
        d="M3 14C2.16933 14 1.46167 13.7077 0.877 13.123C0.292333 12.5383 0 11.8307 0 11V3C0 2.16933 0.292333 1.46167 0.877 0.877C1.46167 0.292333 2.16933 0 3 0H15C15.8307 0 16.5383 0.292333 17.123 0.877C17.7077 1.46167 18 2.16933 18 3V11C18 11.8307 17.7077 12.5383 17.123 13.123C16.5383 13.7077 15.8307 14 15 14H3ZM3 3.5H15C15.392 3.5 15.758 3.56733 16.098 3.702C16.438 3.83667 16.7387 4.034 17 4.294V3C17 2.45 16.8043 1.97933 16.413 1.588C16.0217 1.19667 15.5507 1.00067 15 1H3C2.45 1 1.97933 1.196 1.588 1.588C1.19667 1.98 1.00067 2.45067 1 3V4.294C1.26133 4.034 1.562 3.83667 1.902 3.702C2.242 3.56733 2.608 3.5 3 3.5ZM1.035 6.23L12.371 8.988C12.4957 9.02133 12.6233 9.02467 12.754 8.998C12.8847 8.97133 12.9973 8.91433 13.092 8.827L16.817 5.677C16.6723 5.32433 16.4357 5.04 16.107 4.824C15.7797 4.608 15.4107 4.5 15 4.5H3C2.49 4.5 2.05 4.66367 1.68 4.991C1.31 5.319 1.095 5.73233 1.035 6.231"
        fill="black" />
</svg>
    