<?xml version="1.0" standalone="no"?>
<!DOCTYPE svg PUBLIC "-//W3C//DTD SVG 20010904//EN"
 "http://www.w3.org/TR/2001/REC-SVG-20010904/DTD/svg10.dtd">
<svg version="1.0" xmlns="http://www.w3.org/2000/svg"
 width="511.000000pt" height="511.000000pt" viewBox="0 0 511.000000 511.000000"
 preserveAspectRatio="xMidYMid meet">

<g transform="translate(0.000000,511.000000) scale(0.100000,-0.100000)"
fill="#000000" stroke="none">
<path d="M2315 5100 c-608 -64 -1145 -318 -1566 -739 -687 -689 -921 -1680
-616 -2611 88 -269 250 -567 434 -795 93 -115 281 -302 398 -395 269 -214 603
-381 930 -466 271 -70 443 -89 735 -81 235 7 352 23 568 78 182 46 284 85 487
184 538 264 973 722 1210 1275 82 190 149 420 180 620 22 143 31 484 16 635
-31 314 -111 593 -251 880 -120 245 -266 450 -469 659 -208 213 -409 359 -691
500 -244 122 -471 193 -775 241 -117 19 -471 28 -590 15z m457 -423 c131 -200
196 -306 283 -467 71 -132 186 -372 181 -377 -2 -2 -59 -11 -127 -20 -189 -26
-827 -25 -1036 1 -104 13 -153 23 -153 31 0 19 110 248 186 387 91 166 137
244 267 441 l109 167 92 0 91 0 107 -163z m-632 127 c0 -3 -17 -31 -38 -62
-115 -170 -344 -592 -429 -789 l-31 -72 -83 19 c-116 25 -278 66 -379 96 -109
33 -304 96 -309 101 -8 6 128 140 229 226 255 216 607 390 945 467 94 21 95
22 95 14z m959 -24 c313 -80 648 -246 891 -444 83 -67 270 -245 270 -256 0 -4
-8 -10 -17 -13 -10 -2 -85 -25 -168 -50 -169 -52 -453 -124 -523 -132 l-47 -6
-24 58 c-78 186 -272 547 -419 781 -29 45 -49 82 -46 82 3 0 40 -9 83 -20z
m-2159 -985 c96 -31 269 -81 383 -110 114 -29 210 -55 213 -58 3 -3 -15 -70
-40 -148 -74 -233 -130 -491 -157 -726 l-12 -103 -529 0 -528 0 0 58 c0 31 7
102 15 157 48 341 168 661 353 946 l56 86 36 -22 c19 -13 114 -49 210 -80z
m3538 -2 c121 -179 245 -472 302 -717 18 -80 43 -244 55 -363 l6 -63 -510 0
-510 0 -5 33 c-2 17 -12 88 -21 157 -27 212 -85 466 -154 678 -36 110 -37 112
-12 112 39 0 454 111 611 163 91 30 173 55 182 56 10 1 33 -22 56 -56z m-2486
-233 c252 -31 569 -43 829 -30 179 8 394 27 508 43 17 2 75 -165 125 -359 35
-131 79 -374 92 -497 l7 -67 -977 0 -976 0 0 38 c0 138 94 570 168 782 34 96
41 110 54 110 7 0 84 -9 170 -20z m-668 -1317 c13 -250 55 -501 120 -714 19
-63 34 -114 33 -115 -1 0 -58 -16 -127 -34 -167 -44 -370 -108 -506 -159 -61
-22 -114 -41 -117 -41 -14 0 -175 265 -231 381 -120 248 -184 471 -221 767
l-7 52 525 0 524 0 7 -137z m2236 60 c0 -198 -47 -491 -113 -711 l-32 -107
-35 1 c-19 0 -118 11 -220 23 -419 51 -937 41 -1318 -25 -54 -10 -97 -13 -102
-8 -12 13 -76 243 -99 359 -31 156 -51 326 -51 441 l0 104 985 0 985 0 0 -77z
m1270 56 c0 -52 -35 -256 -65 -374 -58 -230 -182 -510 -308 -693 -27 -40 -54
-75 -58 -78 -5 -3 -89 22 -188 55 -159 53 -416 127 -509 146 -21 4 -32 12 -29
19 77 201 157 654 157 894 l0 52 500 0 c499 0 500 0 500 -21z m-1910 -1089
c133 -12 384 -41 388 -45 13 -12 -148 -307 -257 -470 -91 -137 -262 -358 -339
-437 l-46 -48 -96 0 -96 0 -87 103 c-204 240 -375 494 -491 726 -31 61 -56
113 -56 115 0 9 242 40 475 59 96 8 500 6 605 -3z m837 -140 c135 -34 419
-122 447 -138 12 -7 -114 -132 -214 -212 -193 -154 -391 -269 -613 -354 -101
-40 -297 -99 -303 -93 -1 1 27 40 63 87 141 184 339 512 408 678 17 40 36 72
42 72 7 0 83 -18 170 -40z m-2138 -65 c93 -203 235 -438 379 -628 45 -59 82
-109 82 -112 0 -16 -258 62 -405 121 -143 59 -275 130 -400 214 -106 73 -265
202 -328 268 l-38 39 183 61 c168 56 432 130 468 131 10 1 31 -33 59 -94z"/>
</g>
</svg>
